# Blender v2.79 (sub 0) OBJ File: 'rocketbottomFinalV2.blend'
# www.blender.org
mtllib rocket/rocket_bottom.mtl
o RocketBottom_Cube.013
v -0.437500 -0.375000 0.437500
v -0.437500 -0.125000 0.437500
v -0.437500 -0.375000 -0.437500
v -0.437500 -0.125000 -0.437500
v 0.437500 -0.375000 0.437500
v 0.437500 -0.125000 0.437500
v 0.437500 -0.375000 -0.437500
v 0.437500 -0.125000 -0.437500
v -0.312500 0.000000 0.312500
v -0.312500 0.125000 0.312500
v -0.312500 0.000000 -0.312500
v -0.312500 0.125000 -0.312500
v 0.312500 0.000000 0.312500
v 0.312500 0.125000 0.312500
v 0.312500 0.000000 -0.312500
v 0.312500 0.125000 -0.312500
v -0.687500 0.375000 0.687500
v -0.687500 0.500000 0.687500
v -0.687500 0.375000 -0.687500
v -0.687500 0.500000 -0.687500
v 0.687500 0.375000 0.687500
v 0.687500 0.500000 0.687500
v 0.687500 0.375000 -0.687500
v 0.687500 0.500000 -0.687500
v -0.375000 -0.125000 0.375000
v -0.375000 0.000000 0.375000
v -0.375000 -0.125000 -0.375000
v -0.375000 0.000000 -0.375000
v 0.375000 -0.125000 0.375000
v 0.375000 0.000000 0.375000
v 0.375000 -0.125000 -0.375000
v 0.375000 0.000000 -0.375000
v -0.625000 0.125000 0.625000
v -0.625000 0.375000 0.625000
v -0.625000 0.125000 -0.625000
v -0.625000 0.375000 -0.625000
v 0.625000 0.125000 0.625000
v 0.625000 0.375000 0.625000
v 0.625000 0.125000 -0.625000
v 0.625000 0.375000 -0.625000
vt 0.132812 0.625000
vt 0.132812 0.656250
vt 0.023438 0.656250
vt 0.023438 0.625000
vt 0.132812 0.625000
vt 0.132812 0.656250
vt 0.023438 0.656250
vt 0.023438 0.625000
vt 0.132812 0.625000
vt 0.132812 0.656250
vt 0.023438 0.656250
vt 0.023438 0.625000
vt 0.132812 0.625000
vt 0.132812 0.656250
vt 0.023438 0.656250
vt 0.023438 0.625000
vt 0.132812 0.515625
vt 0.023438 0.515625
vt 0.023438 0.625000
vt 0.023438 0.515625
vt 0.132812 0.515625
vt 0.132812 0.625000
vt 0.117188 0.671875
vt 0.117188 0.687500
vt 0.039062 0.687500
vt 0.039062 0.671875
vt 0.117188 0.671875
vt 0.117188 0.687500
vt 0.039062 0.687500
vt 0.039062 0.671875
vt 0.117188 0.671875
vt 0.117188 0.687500
vt 0.039062 0.687500
vt 0.039062 0.671875
vt 0.117188 0.671875
vt 0.117188 0.687500
vt 0.039062 0.687500
vt 0.039062 0.671875
vt 0.328125 0.781250
vt 0.328125 0.796875
vt 0.156250 0.796875
vt 0.156250 0.781250
vt 0.328125 0.781250
vt 0.328125 0.796875
vt 0.156250 0.796875
vt 0.156250 0.781250
vt 0.328125 0.781250
vt 0.328125 0.796875
vt 0.156250 0.796875
vt 0.156250 0.781250
vt 0.328125 0.781250
vt 0.328125 0.796875
vt 0.156250 0.796875
vt 0.156250 0.781250
vt 0.328125 0.812500
vt 0.328125 0.984375
vt 0.156250 0.984375
vt 0.156250 0.812500
vt 0.156250 0.812500
vt 0.328125 0.812500
vt 0.328125 0.984375
vt 0.156250 0.984375
vt 0.125000 0.656250
vt 0.125000 0.671875
vt 0.031250 0.671875
vt 0.031250 0.656250
vt 0.125000 0.656250
vt 0.125000 0.671875
vt 0.031250 0.671875
vt 0.031250 0.656250
vt 0.125000 0.656250
vt 0.125000 0.671875
vt 0.031250 0.671875
vt 0.031250 0.656250
vt 0.125000 0.656250
vt 0.125000 0.671875
vt 0.031250 0.671875
vt 0.031250 0.656250
vt 0.023438 0.515625
vt 0.023438 0.421875
vt 0.117188 0.421875
vt 0.117188 0.515625
vt 0.156250 0.687500
vt 0.156250 0.718750
vt -0.000000 0.718750
vt 0.000000 0.687500
vt 0.156250 0.687500
vt 0.156250 0.718750
vt -0.000000 0.718750
vt 0.000000 0.687500
vt 0.156250 0.687500
vt 0.156250 0.718750
vt -0.000000 0.718750
vt 0.000000 0.687500
vt 0.156250 0.687500
vt 0.156250 0.718750
vt 0.000000 0.718750
vt -0.000000 0.687500
vt 0.484375 0.687500
vt 0.484375 0.843750
vt 0.328125 0.843750
vt 0.328125 0.687500
vn -1.0000 0.0000 0.0000
vn 0.0000 0.0000 -1.0000
vn 1.0000 0.0000 0.0000
vn 0.0000 0.0000 1.0000
vn 0.0000 -1.0000 0.0000
vn 0.0000 1.0000 0.0000
usemtl RocketTexture
s off
f 1/1/1 2/2/1 4/3/1 3/4/1
f 3/5/2 4/6/2 8/7/2 7/8/2
f 7/9/3 8/10/3 6/11/3 5/12/3
f 5/13/4 6/14/4 2/15/4 1/16/4
f 3/17/5 7/9/5 5/12/5 1/18/5
f 8/19/6 4/20/6 2/21/6 6/22/6
f 9/23/1 10/24/1 12/25/1 11/26/1
f 11/27/2 12/28/2 16/29/2 15/30/2
f 15/31/3 16/32/3 14/33/3 13/34/3
f 13/35/4 14/36/4 10/37/4 9/38/4
f 17/39/1 18/40/1 20/41/1 19/42/1
f 19/43/2 20/44/2 24/45/2 23/46/2
f 23/47/3 24/48/3 22/49/3 21/50/3
f 21/51/4 22/52/4 18/53/4 17/54/4
f 19/55/5 23/56/5 21/57/5 17/58/5
f 24/59/6 20/60/6 18/61/6 22/62/6
f 25/63/1 26/64/1 28/65/1 27/66/1
f 27/67/2 28/68/2 32/69/2 31/70/2
f 31/71/3 32/72/3 30/73/3 29/74/3
f 29/75/4 30/76/4 26/77/4 25/78/4
f 32/79/6 28/80/6 26/81/6 30/82/6
f 33/83/1 34/84/1 36/85/1 35/86/1
f 35/87/2 36/88/2 40/89/2 39/90/2
f 39/91/3 40/92/3 38/93/3 37/94/3
f 37/95/4 38/96/4 34/97/4 33/98/4
f 35/99/5 39/100/5 37/101/5 33/102/5
