# Blender v2.79 (sub 0) OBJ File: 'GCRocketBottom1.blend'
# www.blender.org
mtllib rocket_fins.mtl
o RocketFins_Cube.014
v 0.518306 -0.250000 -0.606694
v 0.518306 0.562500 -0.606694
v 1.004442 -0.750000 -1.092830
v 1.004442 0.062500 -1.092830
v 0.606694 -0.250000 -0.518306
v 0.606694 0.562500 -0.518306
v 1.092830 -0.750000 -1.004442
v 1.092830 0.062500 -1.004442
v 0.958677 -1.000000 -0.958677
v 0.958677 0.312500 -0.958677
v 0.958677 -1.000000 -1.146177
v 0.958677 0.312500 -1.146177
v 1.146177 -1.000000 -0.958677
v 1.146177 0.312500 -0.958677
v 1.146177 -1.000000 -1.146177
v 1.146177 0.312500 -1.146177
v -0.606694 -0.250000 -0.518306
v -0.606694 0.562500 -0.518306
v -1.092830 -0.750000 -1.004442
v -1.092830 0.062500 -1.004442
v -0.518306 -0.250000 -0.606694
v -0.518306 0.562500 -0.606694
v -1.004442 -0.750000 -1.092830
v -1.004442 0.062500 -1.092830
v -0.958677 -1.000000 -0.958677
v -0.958677 0.312500 -0.958677
v -1.146177 -1.000000 -0.958677
v -1.146177 0.312500 -0.958677
v -0.958677 -1.000000 -1.146177
v -0.958677 0.312500 -1.146177
v -1.146177 -1.000000 -1.146177
v -1.146177 0.312500 -1.146177
v 0.606694 -0.250000 0.518306
v 0.606694 0.562500 0.518306
v 1.092830 -0.750000 1.004442
v 1.092830 0.062500 1.004442
v 0.518306 -0.250000 0.606694
v 0.518306 0.562500 0.606694
v 1.004441 -0.750000 1.092830
v 1.004441 0.062500 1.092830
v 0.958677 -1.000000 0.958677
v 0.958677 0.312500 0.958677
v 1.146177 -1.000000 0.958677
v 1.146177 0.312500 0.958677
v 0.958677 -1.000000 1.146177
v 0.958677 0.312500 1.146177
v 1.146177 -1.000000 1.146177
v 1.146177 0.312500 1.146177
v -0.518306 -0.250000 0.606694
v -0.518306 0.562500 0.606694
v -1.004442 -0.750000 1.092830
v -1.004442 0.062500 1.092830
v -0.606694 -0.250000 0.518306
v -0.606694 0.562500 0.518306
v -1.092830 -0.750000 1.004442
v -1.092830 0.062500 1.004442
v -0.958677 -1.000000 0.958677
v -0.958677 0.312500 0.958677
v -0.958677 -1.000000 1.146177
v -0.958677 0.312500 1.146177
v -1.146177 -1.000000 0.958677
v -1.146177 0.312500 0.958677
v -1.146177 -1.000000 1.146177
v -1.146177 0.312500 1.146177
vt 0.351562 0.531250
vt 0.351562 0.632812
vt 0.265625 0.570312
vt 0.265625 0.468750
vt 0.265625 0.468750
vt 0.265625 0.570312
vt 0.351562 0.632812
vt 0.351562 0.531250
vt 0.210938 0.679688
vt 0.210938 0.664062
vt 0.320312 0.664062
vt 0.320312 0.679688
vt 0.320312 0.664062
vt 0.320312 0.679688
vt 0.210938 0.679688
vt 0.210938 0.664062
vt 0.156250 0.492188
vt 0.156250 0.656250
vt 0.132812 0.656250
vt 0.132812 0.492188
vt 0.156250 0.492188
vt 0.156250 0.656250
vt 0.132812 0.656250
vt 0.132812 0.492188
vt 0.156250 0.492188
vt 0.156250 0.656250
vt 0.132812 0.656250
vt 0.132812 0.492188
vt 0.156250 0.492188
vt 0.156250 0.656250
vt 0.132812 0.656250
vt 0.132812 0.492188
vt 0.156250 0.687500
vt 0.132812 0.687500
vt 0.132812 0.664062
vt 0.156250 0.664062
vt 0.156250 0.687500
vt 0.132812 0.687500
vt 0.132812 0.664062
vt 0.156250 0.664062
vt 0.351562 0.531250
vt 0.351562 0.632812
vt 0.265625 0.570312
vt 0.265625 0.468750
vt 0.265625 0.468750
vt 0.265625 0.570312
vt 0.351562 0.632812
vt 0.351562 0.531250
vt 0.210938 0.679688
vt 0.210938 0.664062
vt 0.320312 0.664062
vt 0.320312 0.679688
vt 0.320312 0.664062
vt 0.320312 0.679688
vt 0.210938 0.679688
vt 0.210938 0.664062
vt 0.156250 0.492188
vt 0.156250 0.656250
vt 0.132812 0.656250
vt 0.132812 0.492188
vt 0.156250 0.492188
vt 0.156250 0.656250
vt 0.132812 0.656250
vt 0.132812 0.492188
vt 0.156250 0.492188
vt 0.156250 0.656250
vt 0.132812 0.656250
vt 0.132812 0.492188
vt 0.156250 0.492188
vt 0.156250 0.656250
vt 0.132812 0.656250
vt 0.132812 0.492188
vt 0.156250 0.687500
vt 0.132812 0.687500
vt 0.132812 0.664062
vt 0.156250 0.664062
vt 0.156250 0.687500
vt 0.132812 0.687500
vt 0.132812 0.664062
vt 0.156250 0.664062
vt 0.351562 0.531250
vt 0.351562 0.632812
vt 0.265625 0.570312
vt 0.265625 0.468750
vt 0.265625 0.468750
vt 0.265625 0.570312
vt 0.351562 0.632812
vt 0.351562 0.531250
vt 0.210938 0.679688
vt 0.210938 0.664062
vt 0.320312 0.664062
vt 0.320312 0.679688
vt 0.320312 0.664062
vt 0.320312 0.679688
vt 0.210938 0.679688
vt 0.210938 0.664062
vt 0.156250 0.492188
vt 0.156250 0.656250
vt 0.132812 0.656250
vt 0.132812 0.492188
vt 0.156250 0.492188
vt 0.156250 0.656250
vt 0.132812 0.656250
vt 0.132812 0.492188
vt 0.156250 0.492188
vt 0.156250 0.656250
vt 0.132812 0.656250
vt 0.132812 0.492188
vt 0.156250 0.492188
vt 0.156250 0.656250
vt 0.132812 0.656250
vt 0.132812 0.492188
vt 0.156250 0.687500
vt 0.132812 0.687500
vt 0.132812 0.664062
vt 0.156250 0.664062
vt 0.156250 0.687500
vt 0.132812 0.687500
vt 0.132812 0.664062
vt 0.156250 0.664062
vt 0.351562 0.531250
vt 0.351562 0.632812
vt 0.265625 0.570312
vt 0.265625 0.468750
vt 0.265625 0.468750
vt 0.265625 0.570312
vt 0.351562 0.632812
vt 0.351562 0.531250
vt 0.210938 0.679688
vt 0.210938 0.664062
vt 0.320312 0.664062
vt 0.320312 0.679688
vt 0.320312 0.664062
vt 0.320312 0.679688
vt 0.210938 0.679688
vt 0.210938 0.664062
vt 0.156250 0.492188
vt 0.156250 0.656250
vt 0.132812 0.656250
vt 0.132812 0.492188
vt 0.156250 0.492188
vt 0.156250 0.656250
vt 0.132812 0.656250
vt 0.132812 0.492188
vt 0.156250 0.492188
vt 0.156250 0.656250
vt 0.132812 0.656250
vt 0.132812 0.492188
vt 0.156250 0.492188
vt 0.156250 0.656250
vt 0.132812 0.656250
vt 0.132812 0.492188
vt 0.156250 0.687500
vt 0.132812 0.687500
vt 0.132812 0.664062
vt 0.156250 0.664062
vt 0.156250 0.687500
vt 0.132812 0.687500
vt 0.132812 0.664062
vt 0.156250 0.664062
vn -0.7071 0.0000 -0.7071
vn 0.7071 0.0000 0.7071
vn -0.4159 -0.8087 0.4159
vn 0.4159 0.8087 -0.4159
vn -1.0000 0.0000 0.0000
vn -0.0000 0.0000 -1.0000
vn 1.0000 0.0000 0.0000
vn 0.0000 0.0000 1.0000
vn 0.0000 -1.0000 0.0000
vn 0.0000 1.0000 0.0000
vn -0.7071 0.0000 0.7071
vn 0.7071 0.0000 -0.7071
vn 0.4159 -0.8087 0.4159
vn -0.4159 0.8087 -0.4159
vn -0.4159 -0.8087 -0.4159
vn 0.4159 0.8087 0.4159
vn 0.4159 -0.8087 -0.4159
vn -0.4159 0.8087 0.4159
usemtl sprite
s off
f 1/1/1 2/2/1 4/3/1 3/4/1
f 7/5/2 8/6/2 6/7/2 5/8/2
f 3/9/3 7/10/3 5/11/3 1/12/3
f 8/13/4 4/14/4 2/15/4 6/16/4
f 9/17/5 10/18/5 12/19/5 11/20/5
f 11/21/6 12/22/6 16/23/6 15/24/6
f 15/25/7 16/26/7 14/27/7 13/28/7
f 13/29/8 14/30/8 10/31/8 9/32/8
f 11/33/9 15/34/9 13/35/9 9/36/9
f 16/37/10 12/38/10 10/39/10 14/40/10
f 17/41/11 18/42/11 20/43/11 19/44/11
f 23/45/12 24/46/12 22/47/12 21/48/12
f 19/49/13 23/50/13 21/51/13 17/52/13
f 24/53/14 20/54/14 18/55/14 22/56/14
f 25/57/8 26/58/8 28/59/8 27/60/8
f 27/61/5 28/62/5 32/63/5 31/64/5
f 31/65/6 32/66/6 30/67/6 29/68/6
f 29/69/7 30/70/7 26/71/7 25/72/7
f 27/73/9 31/74/9 29/75/9 25/76/9
f 32/77/10 28/78/10 26/79/10 30/80/10
f 33/81/12 34/82/12 36/83/12 35/84/12
f 39/85/11 40/86/11 38/87/11 37/88/11
f 35/89/15 39/90/15 37/91/15 33/92/15
f 40/93/16 36/94/16 34/95/16 38/96/16
f 41/97/6 42/98/6 44/99/6 43/100/6
f 43/101/7 44/102/7 48/103/7 47/104/7
f 47/105/8 48/106/8 46/107/8 45/108/8
f 45/109/5 46/110/5 42/111/5 41/112/5
f 43/113/9 47/114/9 45/115/9 41/116/9
f 48/117/10 44/118/10 42/119/10 46/120/10
f 49/121/2 50/122/2 52/123/2 51/124/2
f 55/125/1 56/126/1 54/127/1 53/128/1
f 51/129/17 55/130/17 53/131/17 49/132/17
f 56/133/18 52/134/18 50/135/18 54/136/18
f 57/137/7 58/138/7 60/139/7 59/140/7
f 59/141/8 60/142/8 64/143/8 63/144/8
f 63/145/5 64/146/5 62/147/5 61/148/5
f 61/149/6 62/150/6 58/151/6 57/152/6
f 59/153/9 63/154/9 61/155/9 57/156/9
f 64/157/10 60/158/10 58/159/10 62/160/10
