# Blender v2.79 (sub 0) OBJ File: 'rockettoptest.blend'
# www.blender.org
mtllib rocket_cone_advanced.mtl
o RocketTop.002_Cube.004
v -0.062500 1.125000 0.062500
v -0.062500 1.250000 0.062500
v -0.062500 1.125000 -0.062500
v -0.062500 1.250000 -0.062500
v 0.062500 1.125000 0.062500
v 0.062500 1.250000 0.062500
v 0.062500 1.125000 -0.062500
v 0.062500 1.250000 -0.062500
v -0.687500 -0.500000 0.687500
v -0.687500 -0.375000 0.687500
v -0.687500 -0.500000 -0.687500
v -0.687500 -0.375000 -0.687500
v 0.687500 -0.500000 0.687500
v 0.687500 -0.375000 0.687500
v 0.687500 -0.500000 -0.687500
v 0.687500 -0.375000 -0.687500
v -0.625000 -0.375000 0.625000
v -0.625000 -0.125000 0.625000
v -0.625000 -0.375000 -0.625000
v -0.625000 -0.125000 -0.625000
v 0.625000 -0.375000 0.625000
v 0.625000 -0.125000 0.625000
v 0.625000 -0.375000 -0.625000
v 0.625000 -0.125000 -0.625000
v -0.500000 -0.125000 0.500000
v -0.500000 0.125000 0.500000
v -0.500000 -0.125000 -0.500000
v -0.500000 0.125000 -0.500000
v 0.500000 -0.125000 0.500000
v 0.500000 0.125000 0.500000
v 0.500000 -0.125000 -0.500000
v 0.500000 0.125000 -0.500000
v -0.375000 0.125000 0.375000
v -0.375000 0.312500 0.375000
v -0.375000 0.125000 -0.375000
v -0.375000 0.312500 -0.375000
v 0.375000 0.125000 0.375000
v 0.375000 0.312500 0.375000
v 0.375000 0.125000 -0.375000
v 0.375000 0.312500 -0.375000
v -0.250000 0.312500 0.250000
v -0.250000 0.500000 0.250000
v -0.250000 0.312500 -0.250000
v -0.250000 0.500000 -0.250000
v 0.250000 0.312500 0.250000
v 0.250000 0.500000 0.250000
v 0.250000 0.312500 -0.250000
v 0.250000 0.500000 -0.250000
v -0.062500 0.500000 0.062500
v -0.062500 1.125000 0.062500
v -0.062500 0.500000 -0.062500
v -0.062500 1.125000 -0.062500
v 0.062500 0.500000 0.062500
v 0.062500 1.125000 0.062500
v 0.062500 0.500000 -0.062500
v 0.062500 1.125000 -0.062500
vt 0.468750 0.984375
vt 0.468750 1.000000
vt 0.453125 1.000000
vt 0.453125 0.984375
vt 0.468750 0.984375
vt 0.468750 1.000000
vt 0.453125 1.000000
vt 0.453125 0.984375
vt 0.468750 0.984375
vt 0.468750 1.000000
vt 0.453125 1.000000
vt 0.453125 0.984375
vt 0.468750 0.984375
vt 0.468750 1.000000
vt 0.453125 1.000000
vt 0.453125 0.984375
vt 0.460938 0.984375
vt 0.445312 0.984375
vt 0.445312 0.968750
vt 0.460938 0.968750
vt 0.468750 0.984375
vt 0.453125 0.984375
vt 0.328125 0.796875
vt 0.328125 0.812500
vt 0.156250 0.812500
vt 0.156250 0.796875
vt 0.328125 0.796875
vt 0.328125 0.812500
vt 0.156250 0.812500
vt 0.156250 0.796875
vt 0.328125 0.812500
vt 0.328125 0.796875
vt 0.156250 0.812500
vt 0.156250 0.796875
vt 0.156250 0.812500
vt 0.328125 0.812500
vt 0.328125 0.984375
vt 0.156250 0.984375
vt 0.328125 0.984375
vt 0.156250 0.984375
vt 0.484375 0.843750
vt 0.484375 0.875000
vt 0.328125 0.875000
vt 0.328125 0.843750
vt 0.484375 0.843750
vt 0.484375 0.875000
vt 0.328125 0.875000
vt 0.328125 0.843750
vt 0.484375 0.843750
vt 0.484375 0.875000
vt 0.328125 0.875000
vt 0.328125 0.843750
vt 0.484375 0.843750
vt 0.484375 0.875000
vt 0.328125 0.875000
vt 0.328125 0.843750
vt 0.328125 0.687500
vt 0.484375 0.687500
vt 0.484375 0.843750
vt 0.328125 0.843750
vt 0.468750 0.875000
vt 0.468750 0.906250
vt 0.343750 0.906250
vt 0.343750 0.875000
vt 0.468750 0.875000
vt 0.468750 0.906250
vt 0.343750 0.906250
vt 0.343750 0.875000
vt 0.468750 0.875000
vt 0.468750 0.906250
vt 0.343750 0.906250
vt 0.343750 0.875000
vt 0.468750 0.875000
vt 0.468750 0.906250
vt 0.343750 0.906250
vt 0.343750 0.875000
vt 0.500000 0.875000
vt 0.625000 0.875000
vt 0.625000 1.000000
vt 0.500000 1.000000
vt 0.453125 0.906250
vt 0.453125 0.929688
vt 0.359375 0.929688
vt 0.359375 0.906250
vt 0.453125 0.906250
vt 0.453125 0.929688
vt 0.359375 0.929688
vt 0.359375 0.906250
vt 0.453125 0.906250
vt 0.453125 0.929688
vt 0.359375 0.929688
vt 0.359375 0.906250
vt 0.453125 0.906250
vt 0.453125 0.929688
vt 0.359375 0.929688
vt 0.359375 0.906250
vt 0.500000 0.781250
vt 0.593750 0.781250
vt 0.593750 0.875000
vt 0.500000 0.875000
vt 0.437500 0.929688
vt 0.437500 0.953125
vt 0.375000 0.953125
vt 0.375000 0.929688
vt 0.437500 0.929688
vt 0.437500 0.953125
vt 0.375000 0.953125
vt 0.375000 0.929688
vt 0.437500 0.929688
vt 0.437500 0.953125
vt 0.375000 0.953125
vt 0.375000 0.929688
vt 0.437500 0.929688
vt 0.437500 0.953125
vt 0.375000 0.953125
vt 0.375000 0.929688
vt 0.500000 0.718750
vt 0.562500 0.718750
vt 0.562500 0.781250
vt 0.500000 0.781250
vt 0.468750 0.921875
vt 0.484375 0.921875
vt 0.484375 1.000000
vt 0.468750 1.000000
vt 0.484375 0.921875
vt 0.468750 1.000000
vt 0.468750 0.921875
vt 0.484375 0.921875
vt 0.484375 1.000000
vt 0.468750 1.000000
vt 0.468750 0.921875
vt 0.484375 0.921875
vt 0.484375 1.000000
vt 0.468750 1.000000
vt 0.468750 0.921875
vt 0.460938 0.921875
vt 0.460938 0.921875
vt 0.460938 0.921875
vn -1.0000 0.0000 0.0000
vn 0.0000 0.0000 -1.0000
vn 1.0000 0.0000 0.0000
vn 0.0000 0.0000 1.0000
vn 0.0000 -1.0000 0.0000
vn 0.0000 1.0000 0.0000
usemtl RocketTexture
s off
f 1/1/1 2/2/1 4/3/1 3/4/1
f 3/5/2 4/6/2 8/7/2 7/8/2
f 7/9/3 8/10/3 6/11/3 5/12/3
f 5/13/4 6/14/4 2/15/4 1/16/4
f 3/17/5 7/18/5 5/19/5 1/20/5
f 8/21/6 4/6/6 2/15/6 6/22/6
f 9/23/1 10/24/1 12/25/1 11/26/1
f 11/27/2 12/28/2 16/29/2 15/30/2
f 15/30/3 16/29/3 14/31/3 13/32/3
f 13/32/4 14/31/4 10/33/4 9/34/4
f 11/35/5 15/36/5 13/37/5 9/38/5
f 16/29/6 12/28/6 10/39/6 14/40/6
f 17/41/1 18/42/1 20/43/1 19/44/1
f 19/45/2 20/46/2 24/47/2 23/48/2
f 23/49/3 24/50/3 22/51/3 21/52/3
f 21/53/4 22/54/4 18/55/4 17/56/4
f 24/57/6 20/58/6 18/59/6 22/60/6
f 25/61/1 26/62/1 28/63/1 27/64/1
f 27/65/2 28/66/2 32/67/2 31/68/2
f 31/69/3 32/70/3 30/71/3 29/72/3
f 29/73/4 30/74/4 26/75/4 25/76/4
f 32/77/6 28/78/6 26/79/6 30/80/6
f 33/81/1 34/82/1 36/83/1 35/84/1
f 35/85/2 36/86/2 40/87/2 39/88/2
f 39/89/3 40/90/3 38/91/3 37/92/3
f 37/93/4 38/94/4 34/95/4 33/96/4
f 40/97/6 36/98/6 34/99/6 38/100/6
f 41/101/1 42/102/1 44/103/1 43/104/1
f 43/105/2 44/106/2 48/107/2 47/108/2
f 47/109/3 48/110/3 46/111/3 45/112/3
f 45/113/4 46/114/4 42/115/4 41/116/4
f 48/117/6 44/118/6 42/119/6 46/120/6
f 49/121/1 50/122/1 52/123/1 51/124/1
f 51/125/2 52/123/2 56/126/2 55/127/2
f 55/128/3 56/129/3 54/130/3 53/131/3
f 53/132/4 54/133/4 50/134/4 49/121/4
f 51/135/5 55/136/5 53/137/5 49/138/5
